<?xml version="1.0" encoding="UTF-8" standalone="no"?>
<svg
   xmlns:osb="http://www.openswatchbook.org/uri/2009/osb"
   xmlns:dc="http://purl.org/dc/elements/1.1/"
   xmlns:cc="http://creativecommons.org/ns#"
   xmlns:rdf="http://www.w3.org/1999/02/22-rdf-syntax-ns#"
   xmlns:svg="http://www.w3.org/2000/svg"
   xmlns="http://www.w3.org/2000/svg"
   xmlns:sodipodi="http://sodipodi.sourceforge.net/DTD/sodipodi-0.dtd"
   xmlns:inkscape="http://www.inkscape.org/namespaces/inkscape"
   viewBox="0 0 512 1256"
   version="1.1"
   id="svg4574"
   sodipodi:docname="industry.svg"
   inkscape:export-filename="D:\Schaeffler Digital Board\SDB\src\assets\industry.png"
   inkscape:export-xdpi="9.3800001"
   inkscape:export-ydpi="9.3800001"
   width="512"
   height="1256"
   inkscape:version="0.92.3 (2405546, 2018-03-11)">
  <metadata
     id="metadata4580">
    <rdf:RDF>
      <cc:Work
         rdf:about="">
        <dc:format>image/svg+xml</dc:format>
        <dc:type
           rdf:resource="http://purl.org/dc/dcmitype/StillImage" />
        <dc:title></dc:title>
      </cc:Work>
    </rdf:RDF>
  </metadata>
  <defs
     id="defs4578">
    <linearGradient
       id="linearGradient5135"
       osb:paint="solid">
      <stop
         style="stop-color:#000000;stop-opacity:1;"
         offset="0"
         id="stop5133" />
    </linearGradient>
  </defs>
  <sodipodi:namedview
     pagecolor="#ffffff"
     bordercolor="#666666"
     borderopacity="1"
     objecttolerance="10"
     gridtolerance="10"
     guidetolerance="10"
     inkscape:pageopacity="0"
     inkscape:pageshadow="2"
     inkscape:window-width="1920"
     inkscape:window-height="1057"
     id="namedview4576"
     showgrid="false"
     inkscape:zoom="0.4609375"
     inkscape:cx="-14.101695"
     inkscape:cy="689.89831"
     inkscape:window-x="-8"
     inkscape:window-y="-8"
     inkscape:window-maximized="1"
     inkscape:current-layer="svg4574" />
  <path
     d="m 579.2506,298.15388 -139.115,88.528 v -68.28 c 0,-18.916 -20.931,-30.399 -36.885,-20.248 l -139.115,88.528 v -196.309 c 0,-13.255 -10.745,-24 -24,-24 h -112 c -13.255,0 -24,10.745 -24,24 v 400 c 0,13.255 10.745,24 24,24 h 464 c 13.255,0 24,-10.745 24,-24 v -271.971 c 0,-18.917 -20.931,-30.399 -36.885,-20.248 z"
     id="path4572-3-7"
     style="display:none;fill:#007e00;fill-opacity:1;stroke:#000000;stroke-width:20;stroke-miterlimit:4;stroke-dasharray:none;stroke-opacity:1"
     inkscape:connector-curvature="0"
     inkscape:export-xdpi="8.1492052"
     inkscape:export-ydpi="8.1492052" />
  <path
     d="m 523.11136,391.86317 -139.115,88.528 v -68.28 c 0,-18.916 -20.931,-30.399 -36.885,-20.248 l -139.115,88.528 v -196.309 c 0,-13.255 -10.745,-24 -24,-24 H 71.996359 c -13.255003,0 -24.000003,10.745 -24.000003,24 v 400 c 0,13.255 10.745,24 24.000003,24 H 535.99636 c 13.255,0 24,-10.745 24,-24 v -271.971 c 0,-18.917 -20.931,-30.399 -36.885,-20.248 z"
     id="path4572-3"
     style="display:none;fill:#007e00;fill-opacity:1;stroke:#000000;stroke-width:20;stroke-miterlimit:4;stroke-dasharray:none;stroke-opacity:1"
     inkscape:connector-curvature="0"
     inkscape:export-xdpi="8.1492052"
     inkscape:export-ydpi="8.1492052" />
  <path
     d="m 468.28842,443.50982 -135.21045,88.528 v -68.28 c 0,-18.916 -20.34353,-30.399 -35.84975,-20.248 l -135.21045,88.528 V 335.72881 c 0,-13.255 -10.44342,-24 -23.3264,-24 H 29.834866 c -12.882971,0 -23.326391,10.745 -23.326391,24 v 400 c 0,13.25499 10.44342,23.99999 23.326391,23.99999 H 480.81178 c 12.88297,0 23.32639,-10.745 23.32639,-23.99999 V 463.75782 c 0,-18.917 -20.34353,-30.399 -35.84975,-20.248 z"
     id="path4572"
     style="fill:#008000;fill-opacity:1;stroke:#00ff00;stroke-width:19.71733284;stroke-miterlimit:4;stroke-dasharray:none;stroke-opacity:1"
     inkscape:connector-curvature="0"
     inkscape:export-xdpi="11.55"
     inkscape:export-ydpi="11.55" />
</svg>
